# xmcd CD database file
#
# Track frame offsets:
#	150
#	25117
#	51702
#	79370
#	96154
#	131930
#	164187
#	192604
#	219965
#	249892
#	268667
#
# Disc length: 3872 seconds
#
# Revision: 0
# Processed by: cddbd v1.5.2PL0 Copyright (c) Steve Scherf et al.
# Submitted via: CDex 1.79
#
DISCID=a90f1e0b
DTITLE=Max De Aloe Quartetto Crocevia - Crocevia
DYEAR=2006
DGENRE=Jazz
TTITLE0=Sonnambuli (che si cercano)
TTITLE1=Crocevia
TTITLE2=Il volo
TTITLE3=El di que me quieras
TTITLE4=Pack
TTITLE5=Know where you are
TTITLE6=Neve
TTITLE7=To live
TTITLE8=Ul Giuan Marcora
TTITLE9=C'era una volta in america
TTITLE10=Anguilla
EXTD=YEAR: 2006
EXTT0=
EXTT1=
EXTT2=
EXTT3=
EXTT4=
EXTT5=
EXTT6=
EXTT7=
EXTT8=
EXTT9=
EXTT10=
PLAYORDER=
